<svg width="51" height="24" viewBox="0 0 51 24" fill="none" xmlns="http://www.w3.org/2000/svg">
<path d="M0.760353 18.0791C0.760353 18.0791 0.730744 20.0733 2.31261 19.5416C3.89448 19.0099 10.7639 9.58653 15.128 8.53094C19.4921 7.47535 25.5624 5.42058 29.053 12.2205C32.5435 19.0204 26.244 21.9603 24.0334 20.1274C24.0334 20.1274 25.4123 17.1674 22.514 17.99C19.6157 18.8127 23.9165 25.2969 28.7967 21.2899C28.7967 21.2899 28.7918 22.778 28.2663 22.8031C27.7905 22.8475 36.9707 23.2614 32.7768 14.5838C32.7768 14.5838 33.8167 14.4146 33.3101 13.3583C32.8949 12.5093 29.7789 8.43367 26.4702 6.91932C25.7427 6.57941 24.9764 6.33909 24.2324 6.33663C20.2633 6.22762 13.1881 6.00094 3.26362 18.4211C3.26362 18.4211 2.09698 19.8017 1.49615 18.2503C1.42701 18.2808 1.45705 17.3182 0.760353 18.0791Z" fill="#CCABFF"/>
<path d="M26.2908 7.82384C28.6809 8.75221 31.4443 9.30978 33.699 10.5867C35.5747 11.6591 36.148 13.429 35.6426 15.4677C35.4521 16.2533 34.797 17.2023 34.8941 17.985C34.8859 18.1537 35.0851 18.231 35.2233 18.1701C35.5995 18.087 35.9064 18.0343 36.2521 17.8821C35.918 19.1849 35.9019 20.5541 36.8262 21.7153C37.781 22.9458 39.8225 23.7388 41.2439 23.0301C41.3822 22.9692 41.4291 22.7009 41.299 22.5931C40.3085 21.7499 40.8969 20.0873 41.2311 18.7845C42.9331 21.3367 46.5874 22.6988 49.3166 20.8362C50.3314 20.1416 51.1301 18.6753 50.582 17.4309C50.1556 16.463 49.1293 16.0071 48.3441 16.8482C48.2557 16.9285 48.217 17.028 48.2474 17.0972C48.4524 17.7498 49.8162 18.2223 48.2619 18.5354C46.7767 18.8182 45.4458 17.6709 44.494 16.7281C42.9113 15.1964 41.8512 13.352 39.8261 12.2216C38.938 11.7047 38.1384 11.1076 37.2504 10.5908C36.1825 9.94676 34.9183 9.51304 33.7039 9.09865C31.3747 8.30856 29.0151 7.44934 26.5422 7.17653L26.4925 7.15718C26.1357 7.19052 25.9229 7.73825 26.2908 7.82384Z" fill="#CCABFF"/>
<path d="M29.4517 6.47277C30.1352 7.36864 32.5249 7.26532 33.4488 7.39494C35.1665 7.54636 36.7236 7.52083 38.3635 6.83976C39.7075 6.33028 41.0347 5.12658 41.6067 3.80149C41.9079 3.17351 42.347 1.45295 41.3318 1.11592C41.2322 1.07724 41.163 1.10769 41.0634 1.06901C40.9943 1.09947 40.856 1.16037 40.7869 1.19083C40.6762 1.03322 40.5351 0.80647 40.4244 0.64886C40.1338 0.364093 39.6746 0.0710967 39.2375 0.0159577C38.3137 -0.113661 37.2491 0.561651 37.1195 1.48551C37.0368 2.14106 37.5047 3.29701 38.3343 2.93157C38.5417 2.84021 38.6495 2.71017 38.7075 2.56079C39.9277 3.55048 37.9977 4.97846 36.9689 5.26654C36.1973 5.48259 35.3952 5.62951 34.5932 5.77643C33.0776 5.99003 31.6364 5.71679 30.1402 5.88059C30.1402 5.88059 30.1402 5.88059 30.0904 5.86125C29.7723 5.795 29.8221 5.81434 29.4957 5.91681C29.3686 6.09665 29.341 6.31516 29.4517 6.47277Z" fill="#CCABFF"/>
<path d="M15.7906 12.284C15.9346 12.7984 15.6001 13.0696 15.8935 13.642C16.3281 14.4411 17.833 15.1403 18.6099 14.4679C18.6984 14.3876 18.7066 14.2189 18.6762 14.1498C18.1725 13.3811 17.3177 13.221 17.5441 12.0482C17.7399 10.8062 19.1255 10.4848 20.2234 10.1663C21.114 9.9391 22.0238 9.66214 22.9255 9.5539C23.8271 9.44566 24.574 9.73577 25.3514 10.095C25.6999 10.2304 25.8629 9.66333 25.5143 9.52794C25.4645 9.5086 25.4839 9.45881 25.4341 9.43947C23.5197 8.46666 21.2987 8.5782 19.2494 8.98563C18.0712 9.21568 15.5046 9.47949 15.3227 11.128C15.1708 11.814 15.6964 11.7889 15.7906 12.284Z" fill="#CCABFF"/>
<path d="M6.74253 10.2022C8.3211 8.35116 10.691 7.26596 12.8646 6.39105C14.1589 5.86224 15.5527 5.37211 16.7555 4.63589C17.3666 4.24288 18.1436 3.57045 18.4835 2.84289C19.26 1.13878 17.5588 0.649918 16.558 1.75115C16.2925 1.99189 15.9218 1.61865 16.1567 1.30877C16.9419 0.467622 18.5238 -0.0640755 19.1328 1.31862C19.8221 2.78979 18.1024 4.41407 17.0185 5.13917C14.7013 6.53136 11.919 7.05525 9.59351 8.61616C8.35197 9.45197 7.21002 10.3265 6.4693 11.6433C5.91376 12.631 5.65698 13.7347 6.16357 14.791C6.74218 16.1046 7.96769 16.6379 9.23968 15.8712C9.53556 15.6996 9.84832 16.2222 9.50265 16.3745C7.95411 17.263 6.4105 16.6634 5.66029 15.054C4.89896 13.3256 5.59523 11.533 6.74253 10.2022Z" fill="#CCABFF"/>
</svg>
