<svg width="51" height="24" viewBox="0 0 51 24" fill="none" xmlns="http://www.w3.org/2000/svg">
<path d="M50.0036 18.0791C50.0036 18.0791 50.0332 20.0733 48.4514 19.5416C46.8695 19.0099 40.0001 9.58653 35.636 8.53094C31.2718 7.47535 25.2016 5.42058 21.711 12.2205C18.2204 19.0204 24.5199 21.9603 26.7306 20.1274C26.7306 20.1274 25.3517 17.1674 28.25 17.99C31.1483 18.8127 26.8474 25.2969 21.9673 21.2899C21.9673 21.2899 21.9722 22.778 22.4977 22.8031C22.9734 22.8475 13.7933 23.2614 17.9872 14.5838C17.9872 14.5838 16.9473 14.4146 17.4538 13.3583C17.8691 12.5093 20.9851 8.43367 24.2937 6.91932C25.0213 6.57941 25.7876 6.33909 26.5316 6.33663C30.5007 6.22762 37.5759 6.00094 47.5004 18.4211C47.5004 18.4211 48.667 19.8017 49.2678 18.2503C49.337 18.2808 49.3069 17.3182 50.0036 18.0791Z" fill="#CCABFF"/>
<path d="M24.4732 7.82384C22.0831 8.75221 19.3197 9.30978 17.065 10.5867C15.1893 11.6591 14.616 13.429 15.1213 15.4677C15.3119 16.2533 15.967 17.2023 15.8699 17.985C15.8781 18.1537 15.6789 18.231 15.5407 18.1701C15.1645 18.087 14.8575 18.0343 14.5119 17.8821C14.846 19.1849 14.862 20.5541 13.9378 21.7153C12.983 22.9458 10.9415 23.7388 9.5201 23.0301C9.38183 22.9692 9.33491 22.7009 9.46495 22.5931C10.4555 21.7499 9.86704 20.0873 9.5329 18.7845C7.83083 21.3367 4.17654 22.6988 1.44737 20.8362C0.432575 20.1416 -0.366167 18.6753 0.181988 17.4309C0.60833 16.463 1.63466 16.0071 2.41983 16.8482C2.50831 16.9285 2.54699 17.028 2.51653 17.0972C2.31159 17.7498 0.947816 18.2223 2.50212 18.5354C3.98728 18.8182 5.31814 17.6709 6.26999 16.7281C7.8527 15.1964 8.91279 13.352 10.9379 12.2216C11.8259 11.7047 12.6255 11.1076 13.5136 10.5908C14.5815 9.94676 15.8457 9.51304 17.0601 9.09865C19.3893 8.30856 21.7489 7.44934 24.2217 7.17653L24.2715 7.15718C24.6283 7.19052 24.8411 7.73825 24.4732 7.82384Z" fill="#CCABFF"/>
<path d="M21.3123 6.47277C20.6287 7.36864 18.2391 7.26532 17.3152 7.39494C15.5975 7.54636 14.0403 7.52083 12.4004 6.83976C11.0564 6.33028 9.7293 5.12658 9.1573 3.80149C8.85608 3.17351 8.41701 1.45295 9.43222 1.11592C9.53181 1.07724 9.60095 1.10769 9.70053 1.06901C9.76967 1.09947 9.90794 1.16037 9.97707 1.19083C10.0878 1.03322 10.2289 0.80647 10.3396 0.64886C10.6302 0.364093 11.0894 0.0710967 11.5264 0.0159577C12.4503 -0.113661 13.5149 0.561651 13.6445 1.48551C13.7272 2.14106 13.2593 3.29701 12.4297 2.93157C12.2223 2.84021 12.1145 2.71017 12.0565 2.56079C10.8363 3.55048 12.7663 4.97846 13.7951 5.26654C14.5667 5.48259 15.3687 5.62951 16.1708 5.77643C17.6864 5.99003 19.1275 5.71679 20.6238 5.88059C20.6238 5.88059 20.6238 5.88059 20.6736 5.86125C20.9917 5.795 20.9419 5.81434 21.2683 5.91681C21.3954 6.09665 21.423 6.31516 21.3123 6.47277Z" fill="#CCABFF"/>
<path d="M34.9734 12.284C34.8293 12.7984 35.1639 13.0696 34.8705 13.642C34.4359 14.4411 32.931 15.1403 32.1541 14.4679C32.0656 14.3876 32.0573 14.2189 32.0878 14.1498C32.5915 13.3811 33.4462 13.221 33.2199 12.0482C33.024 10.8062 31.6385 10.4848 30.5405 10.1663C29.65 9.9391 28.7401 9.66214 27.8385 9.5539C26.9369 9.44566 26.19 9.73577 25.4126 10.095C25.0641 10.2304 24.9011 9.66333 25.2497 9.52794C25.2994 9.5086 25.2801 9.45881 25.3299 9.43947C27.2443 8.46666 29.4653 8.5782 31.5146 8.98563C32.6928 9.21568 35.2594 9.47949 35.4413 11.128C35.5931 11.814 35.0676 11.7889 34.9734 12.284Z" fill="#CCABFF"/>
<path d="M44.0214 10.2022C42.4429 8.35116 40.073 7.26596 37.8993 6.39105C36.6051 5.86224 35.2113 5.37211 34.0084 4.63589C33.3973 4.24288 32.6204 3.57045 32.2805 2.84289C31.504 1.13878 33.2052 0.649918 34.206 1.75115C34.4714 1.99189 34.8422 1.61865 34.6072 1.30877C33.8221 0.467622 32.2402 -0.0640755 31.6311 1.31862C30.9418 2.78979 32.6616 4.41407 33.7455 5.13917C36.0627 6.53136 38.845 7.05525 41.1705 8.61616C42.412 9.45197 43.554 10.3265 44.2947 11.6433C44.8502 12.631 45.107 13.7347 44.6004 14.791C44.0218 16.1046 42.7963 16.6379 41.5243 15.8712C41.2284 15.6996 40.9157 16.2222 41.2613 16.3745C42.8099 17.263 44.3535 16.6634 45.1037 15.054C45.865 13.3256 45.1687 11.533 44.0214 10.2022Z" fill="#CCABFF"/>
</svg>
