<svg width="94" height="45" viewBox="0 0 94 45" fill="none" xmlns="http://www.w3.org/2000/svg">
<path d="M93.6048 34.692C93.6048 34.692 93.6602 38.4252 90.6989 37.4298C87.7376 36.4345 74.878 18.7936 66.7082 16.8175C58.5384 14.8414 47.1747 10.9949 40.6403 23.7244C34.1059 36.454 45.8987 41.9576 50.0372 38.5264C50.0372 38.5264 47.4557 32.9851 52.8814 34.5251C58.3071 36.0652 50.2558 48.2038 41.1201 40.7026C41.1201 40.7026 41.1293 43.4883 42.1131 43.5353C43.0036 43.6185 25.8182 44.3933 33.6692 28.1486C33.6692 28.1486 31.7225 27.8319 32.6708 25.8544C33.4481 24.2651 39.2815 16.6354 45.4753 13.8005C46.8373 13.1642 48.2717 12.7143 49.6646 12.7097C57.0948 12.5057 70.3398 12.0813 88.9186 35.3321C88.9186 35.3321 91.1026 37.9167 92.2273 35.0124C92.3568 35.0694 92.3006 33.2675 93.6048 34.692Z" fill="#ccabff"/>
<path d="M45.8111 15.4938C41.3368 17.2317 36.1638 18.2755 31.9429 20.666C28.4315 22.6735 27.3583 25.9869 28.3043 29.8033C28.661 31.2739 29.8874 33.0504 29.7056 34.5157C29.721 34.8315 29.3481 34.9764 29.0893 34.8623C28.3852 34.7067 27.8105 34.6081 27.1633 34.3231C27.7889 36.7621 27.8189 39.3251 26.0886 41.4991C24.3013 43.8024 20.4795 45.2869 17.8186 43.9603C17.5598 43.8463 17.472 43.344 17.7154 43.1422C19.5697 41.5637 18.4681 38.4514 17.8426 36.0124C14.6563 40.7902 7.81539 43.3401 2.70632 39.8533C0.806598 38.5529 -0.688666 35.8081 0.337492 33.4785C1.13562 31.6666 3.05693 30.813 4.52678 32.3877C4.69241 32.5379 4.76483 32.7243 4.70782 32.8537C4.32416 34.0755 1.77114 34.9599 4.68083 35.5462C7.46109 36.0755 9.95249 33.9277 11.7344 32.1628C14.6973 29.2955 16.6818 25.8427 20.4728 23.7265C22.1353 22.759 23.6321 21.6412 25.2946 20.6736C27.2937 19.468 29.6603 18.656 31.9337 17.8803C36.294 16.4012 40.7113 14.7927 45.3405 14.282L45.4337 14.2458C46.1016 14.3082 46.4999 15.3336 45.8111 15.4938Z" fill="#ccabff"/>
<path d="M39.8939 12.9646C38.6143 14.6417 34.1408 14.4483 32.4113 14.6909C29.1957 14.9744 26.2806 14.9266 23.2107 13.6516C20.6947 12.6979 18.2103 10.4445 17.1395 7.96388C16.5756 6.78829 15.7536 3.56736 17.6542 2.93645C17.8406 2.86403 17.97 2.92104 18.1564 2.84863C18.2859 2.90564 18.5447 3.01966 18.6741 3.07667C18.8814 2.78162 19.1456 2.35714 19.3528 2.06209C19.8967 1.529 20.7565 0.980507 21.5746 0.877285C23.3041 0.634636 25.297 1.89884 25.5397 3.62832C25.6945 4.85552 24.8186 7.01949 23.2655 6.33538C22.8772 6.16436 22.6754 5.92092 22.5668 5.64127C20.2826 7.49399 23.8956 10.1672 25.8216 10.7065C27.266 11.111 28.7674 11.386 30.2689 11.661C33.1062 12.0609 35.804 11.5494 38.6051 11.856C38.6051 11.856 38.6051 11.856 38.6983 11.8198C39.2938 11.6958 39.2006 11.732 39.8115 11.9238C40.0495 12.2605 40.1011 12.6695 39.8939 12.9646Z" fill="#ccabff"/>
<path d="M65.4678 23.8433C65.1982 24.8063 65.8245 25.3139 65.2752 26.3855C64.4617 27.8816 61.6444 29.1904 60.19 27.9316C60.0243 27.7814 60.0089 27.4655 60.0659 27.3361C61.0089 25.8971 62.6089 25.5974 62.1853 23.4019C61.8186 21.0769 59.2248 20.4752 57.1694 19.8789C55.5023 19.4536 53.799 18.9352 52.1112 18.7325C50.4233 18.5299 49.0251 19.073 47.5698 19.7455C46.9173 19.999 46.6122 18.9374 47.2648 18.6839C47.358 18.6477 47.3218 18.5545 47.415 18.5183C50.9988 16.6972 55.1565 16.906 58.9929 17.6687C61.1985 18.0994 66.0033 18.5932 66.3437 21.6793C66.628 22.9636 65.6442 22.9166 65.4678 23.8433Z" fill="#ccabff"/>
<path d="M82.406 19.9461C79.4509 16.481 75.0143 14.4495 70.9453 12.8116C68.5224 11.8217 65.9132 10.9041 63.6614 9.5259C62.5174 8.79019 61.063 7.53139 60.4267 6.16936C58.973 2.97924 62.1577 2.06407 64.0313 4.12561C64.5281 4.57628 65.2223 3.87756 64.7824 3.29746C63.3125 1.72281 60.3512 0.727461 59.2111 3.3159C57.9207 6.06996 61.14 9.11065 63.1691 10.4681C67.5071 13.0743 72.7155 14.055 77.0689 16.9771C79.3931 18.5417 81.5308 20.1788 82.9175 22.644C83.9575 24.4929 84.4382 26.559 83.4898 28.5366C82.4066 30.9956 80.1125 31.9939 77.7313 30.5587C77.1774 30.2375 76.5919 31.2158 77.239 31.5009C80.1379 33.1641 83.0276 32.0417 84.432 29.0288C85.8572 25.7933 84.5538 22.4375 82.406 19.9461Z" fill="#ccabff"/>
</svg>
