<svg width="95" height="45" viewBox="0 0 95 45" fill="none" xmlns="http://www.w3.org/2000/svg">
<path d="M0.760387 34.692C0.760387 34.692 0.704958 38.4252 3.66626 37.4298C6.62755 36.4345 19.4872 18.7936 27.6569 16.8175C35.8267 14.8414 47.1904 10.9949 53.7248 23.7244C60.2593 36.454 48.4665 41.9576 44.328 38.5264C44.328 38.5264 46.9095 32.9851 41.4837 34.5251C36.058 36.0652 44.1093 48.2038 53.2451 40.7026C53.2451 40.7026 53.2359 43.4883 52.2521 43.5353C51.3615 43.6185 68.547 44.3933 60.696 28.1486C60.696 28.1486 62.6427 27.8319 61.6943 25.8544C60.917 24.2651 55.0837 16.6354 48.8899 13.8005C47.5279 13.1642 46.0934 12.7143 44.7006 12.7097C37.2704 12.5057 24.0254 12.0813 5.44656 35.3321C5.44656 35.3321 3.26258 37.9167 2.13781 35.0124C2.00839 35.0694 2.06461 33.2675 0.760387 34.692Z" fill="#ccabff"/>
<path d="M48.554 15.4938C53.0283 17.2317 58.2014 18.2755 62.4223 20.666C65.9337 22.6735 67.0068 25.9869 66.0608 29.8033C65.7042 31.2739 64.4778 33.0504 64.6596 34.5157C64.6442 34.8315 65.017 34.9764 65.2759 34.8623C65.98 34.7067 66.5547 34.6081 67.2018 34.3231C66.5763 36.7621 66.5463 39.3251 68.2766 41.4991C70.0638 43.8024 73.8857 45.2869 76.5465 43.9603C76.8054 43.8463 76.8932 43.344 76.6497 43.1422C74.7954 41.5637 75.897 38.4514 76.5225 36.0124C79.7088 40.7902 86.5498 43.3401 91.6588 39.8533C93.5586 38.5529 95.0538 35.8081 94.0277 33.4785C93.2295 31.6666 91.3082 30.813 89.8384 32.3877C89.6727 32.5379 89.6003 32.7243 89.6573 32.8537C90.041 34.0755 92.594 34.9599 89.6843 35.5462C86.9041 36.0755 84.4127 33.9277 82.6308 32.1628C79.6679 29.2955 77.6834 25.8427 73.8924 23.7265C72.2299 22.759 70.7331 21.6412 69.0706 20.6736C67.0715 19.468 64.7049 18.656 62.4315 17.8803C58.0712 16.4012 53.6539 14.7927 49.0247 14.282L48.9315 14.2458C48.2636 14.3082 47.8653 15.3336 48.554 15.4938Z" fill="#ccabff"/>
<path d="M54.4713 12.9646C55.7509 14.6417 60.2244 14.4483 61.9539 14.6909C65.1694 14.9744 68.0845 14.9266 71.1544 13.6516C73.6704 12.6979 76.1549 10.4445 77.2257 7.96388C77.7896 6.78829 78.6115 3.56736 76.711 2.93645C76.5246 2.86403 76.3951 2.92104 76.2087 2.84863C76.0793 2.90564 75.8205 3.01966 75.691 3.07667C75.4838 2.78162 75.2196 2.35714 75.0123 2.06209C74.4684 1.529 73.6087 0.980507 72.7906 0.877285C71.0611 0.634636 69.0681 1.89884 68.8255 3.62832C68.6707 4.85552 69.5466 7.01949 71.0997 6.33538C71.4879 6.16436 71.6898 5.92092 71.7984 5.64127C74.0825 7.49399 70.4695 10.1672 68.5436 10.7065C67.0992 11.111 65.5977 11.386 64.0963 11.661C61.259 12.0609 58.5611 11.5494 55.7601 11.856C55.7601 11.856 55.7601 11.856 55.6669 11.8198C55.0714 11.6958 55.1646 11.732 54.5537 11.9238C54.3156 12.2605 54.264 12.6695 54.4713 12.9646Z" fill="#ccabff"/>
<path d="M28.8974 23.8433C29.167 24.8063 28.5407 25.3139 29.09 26.3855C29.9035 27.8816 32.7208 29.1904 34.1752 27.9316C34.3408 27.7814 34.3562 27.4655 34.2992 27.3361C33.3563 25.8971 31.7562 25.5974 32.1799 23.4019C32.5466 21.0769 35.1404 20.4752 37.1958 19.8789C38.8628 19.4536 40.5661 18.9352 42.254 18.7325C43.9419 18.5299 45.3401 19.073 46.7953 19.7455C47.4479 19.999 47.7529 18.9374 47.1004 18.6839C47.0072 18.6477 47.0434 18.5545 46.9502 18.5183C43.3664 16.6972 39.2087 16.906 35.3723 17.6687C33.1667 18.0994 28.3619 18.5932 28.0214 21.6793C27.7372 22.9636 28.7209 22.9166 28.8974 23.8433Z" fill="#ccabff"/>
<path d="M11.9592 19.9461C14.9143 16.481 19.3508 14.4495 23.4199 12.8116C25.8427 11.8217 28.452 10.9041 30.7037 9.5259C31.8477 8.79019 33.3022 7.53139 33.9385 6.16936C35.3921 2.97924 32.2074 2.06407 30.3339 4.12561C29.837 4.57628 29.1429 3.87756 29.5828 3.29746C31.0526 1.72281 34.0139 0.727461 35.1541 3.3159C36.4445 6.06996 33.2252 9.11065 31.196 10.4681C26.8581 13.0743 21.6496 14.055 17.2963 16.9771C14.9721 18.5417 12.8343 20.1788 11.4477 22.644C10.4077 24.4929 9.92699 26.559 10.8753 28.5366C11.9585 30.9956 14.2527 31.9939 16.6339 30.5587C17.1878 30.2375 17.7733 31.2158 17.1262 31.5009C14.2273 33.1641 11.3376 32.0417 9.93318 29.0288C8.50796 25.7933 9.8114 22.4375 11.9592 19.9461Z" fill="#ccabff"/>
</svg>
