<svg width="40" height="40" viewBox="0 0 40 40" fill="none" xmlns="http://www.w3.org/2000/svg">
<path d="M37.4189 12.6029C36.2189 14.4029 33.8189 15.7029 31.6189 16.1029C29.3189 16.5029 27.0189 15.8029 25.0189 14.8029C22.6189 13.7029 20.5189 12.2029 18.2189 10.9029C16.1189 9.7029 13.7189 8.5029 11.1189 8.5029C10.8189 8.5029 10.5189 8.4029 10.5189 8.2029C10.4189 8.0029 10.5189 7.7029 10.7189 7.6029C12.4189 6.30291 15.0189 6.30291 17.1189 6.80291C19.3189 7.4029 20.5189 9.2029 21.6189 10.9029C21.7189 9.9029 21.9189 8.9029 22.8189 8.2029C23.2189 7.9029 24.4189 7.3029 23.6189 8.7029C22.7189 10.1029 24.0189 11.9029 25.2189 13.1029C26.5189 14.5029 28.7189 15.1029 30.6189 15.3029C30.7189 15.3029 30.7189 15.3029 30.7189 15.3029C30.9189 15.3029 31.1189 15.3029 31.3189 15.2029C35.0189 14.7029 37.3189 11.8029 37.7189 8.7029C38.0189 6.2029 37.5189 2.8029 34.9189 1.4029C33.7189 0.802905 32.3189 0.902905 31.1189 1.3029C30.9189 1.4029 30.8189 1.4029 30.6189 1.5029C30.6189 1.7029 30.6189 1.8029 30.4189 2.0029C29.9189 2.5029 29.7189 3.50291 30.0189 4.30291C31.0189 3.9029 32.4189 4.1029 33.4189 4.5029C34.8189 5.1029 35.7189 6.5029 35.1189 7.6029C35.1189 7.7029 35.0189 7.80291 35.0189 7.80291C35.0189 7.9029 34.9189 8.10291 34.7189 8.10291C31.9189 9.60291 29.0189 7.9029 28.2189 5.2029C27.3189 2.2029 30.0189 0.102905 33.1189 0.00290484C36.1189 -0.0970952 37.8189 2.4029 38.5189 4.7029C39.2189 7.3029 38.9189 10.3029 37.4189 12.6029Z" fill="#ccabff"/>
<path d="M20.1189 19.9029C20.1189 19.9029 20.1189 19.9029 20.0189 20.0029C19.9189 20.1029 19.8189 20.1029 19.7189 20.3029C19.4189 20.5029 19.1189 21.0029 18.8189 21.6029C18.7189 21.9029 18.5189 22.3029 18.4189 22.7029C18.3189 23.1029 18.3189 23.6029 18.3189 24.0029C18.4189 24.5029 18.5189 25.0029 18.7189 25.4029C18.9189 25.9029 19.3189 26.3029 19.7189 26.7029C20.6189 27.5029 21.8189 28.1029 23.1189 28.1029C23.8189 28.1029 24.5189 28.0029 25.1189 27.7029C25.4189 27.6029 25.7189 27.4029 26.0189 27.2029C26.1189 27.1029 26.3189 27.0029 26.4189 26.9029C26.5189 26.8029 26.7189 26.6029 26.8189 26.5029C27.9189 25.4029 28.6189 23.9029 28.6189 22.3029C28.6189 21.5029 28.5189 20.7029 28.2189 19.9029C28.1189 19.7029 28.0189 19.5029 27.9189 19.3029C27.8189 19.1029 27.7189 18.9029 27.6189 18.7029C27.4189 18.3029 27.1189 18.0029 26.8189 17.7029C26.0189 16.8029 25.0189 16.1029 24.0189 15.7029C22.9189 15.3029 21.8189 15.0029 20.7189 15.1029C19.6189 15.1029 18.5189 15.4029 17.6189 15.8029C17.4189 15.9029 17.1189 16.0029 16.9189 16.1029C16.7189 16.2029 16.5189 16.4029 16.2189 16.5029C15.8189 16.8029 15.4189 17.1029 15.0189 17.4029C13.6189 18.7029 12.6189 20.4029 12.1189 21.9029C11.6189 23.4029 11.5189 24.9029 11.6189 26.1029C11.8189 27.2029 12.2189 28.6029 13.1189 30.0029C14.0189 31.4029 15.2189 32.8029 16.9189 33.9029C18.6189 35.0029 20.6189 35.8029 22.9189 36.0029C25.2189 36.2029 27.6189 35.9029 29.8189 34.8029C30.0189 34.7029 30.2189 34.6029 30.4189 34.5029C30.6189 34.4029 30.8189 34.3029 31.0189 34.2029C31.2189 34.1029 31.4189 34.0029 31.6189 33.8029L31.9189 33.6029L32.2189 33.4029C32.9189 32.9029 33.6189 32.3029 34.2189 31.7029C35.4189 30.5029 36.3189 29.1029 36.9189 27.6029C37.5189 26.1029 37.8189 24.6029 38.0189 23.2029C38.2189 21.8029 38.3189 20.4029 38.4189 19.2029C38.5189 16.7029 38.6189 14.7029 38.6189 13.3029C38.6189 11.9029 38.7189 11.1029 38.7189 11.1029C38.7189 11.1029 38.9189 11.6029 39.0189 13.0029C39.1189 14.4029 39.2189 16.4029 39.3189 18.9029C39.3189 20.2029 39.3189 21.5029 39.2189 23.0029C39.1189 24.5029 38.8189 26.1029 38.2189 27.7029C37.6189 29.3029 36.7189 30.9029 35.4189 32.3029C34.8189 33.0029 34.0189 33.6029 33.2189 34.2029L32.9189 34.4029L32.6189 34.6029C32.4189 34.7029 32.2189 34.9029 32.0189 35.0029C31.8189 35.1029 31.6189 35.3029 31.4189 35.4029C31.2189 35.5029 31.0189 35.6029 30.7189 35.7029C28.2189 36.9029 25.5189 37.3029 23.0189 36.9029C20.5189 36.6029 18.3189 35.6029 16.6189 34.3029C14.9189 33.0029 13.6189 31.4029 12.8189 29.9029C12.0189 28.4029 11.6189 26.9029 11.6189 25.7029C11.4189 24.5029 11.4189 23.0029 11.8189 21.3029C12.2189 19.6029 13.1189 17.8029 14.6189 16.2029C15.0189 15.8029 15.4189 15.4029 15.9189 15.1029C16.1189 14.9029 16.4189 14.8029 16.6189 14.6029C16.9189 14.5029 17.1189 14.3029 17.4189 14.2029C18.5189 13.7029 19.7189 13.3029 21.0189 13.3029C22.3189 13.2029 23.6189 13.5029 24.9189 14.0029C26.2189 14.5029 27.3189 15.3029 28.2189 16.4029C28.6189 16.8029 28.8189 17.2029 29.1189 17.6029C29.2189 17.8029 29.4189 18.0029 29.5189 18.3029C29.6189 18.5029 29.7189 18.8029 29.8189 19.0029C30.2189 20.0029 30.3189 21.0029 30.2189 22.0029C30.1189 23.0029 29.9189 23.9029 29.5189 24.8029C29.1189 25.7029 28.5189 26.4029 27.9189 27.0029C27.7189 27.1029 27.6189 27.3029 27.4189 27.4029C27.2189 27.5029 27.0189 27.7029 26.9189 27.8029C26.5189 28.0029 26.1189 28.2029 25.7189 28.4029C24.9189 28.7029 24.0189 28.8029 23.2189 28.8029C21.6189 28.7029 20.2189 28.0029 19.3189 27.0029C19.2189 26.9029 19.1189 26.7029 19.0189 26.6029C18.9189 26.5029 18.8189 26.3029 18.7189 26.2029C18.6189 26.1029 18.5189 25.9029 18.5189 25.8029C18.4189 25.7029 18.4189 25.5029 18.3189 25.4029C18.1189 24.8029 18.0189 24.3029 17.9189 23.8029C17.9189 22.7029 18.2189 21.9029 18.6189 21.3029C19.0189 20.7029 19.4189 20.3029 19.7189 20.1029C19.8189 20.1029 19.9189 20.0029 20.0189 20.0029C20.1189 19.9029 20.1189 19.9029 20.1189 19.9029Z" fill="#ccabff"/>
<path d="M5.81894 33.9029C5.81894 33.9029 5.91894 33.9029 6.01894 33.8029C6.21894 33.7029 6.41895 33.7029 6.71894 33.6029C7.01894 33.6029 7.51895 33.6029 7.91895 33.8029C8.11895 33.9029 8.31894 34.1029 8.51894 34.3029C8.71894 34.5029 8.91894 34.8029 9.01894 35.1029C9.21894 35.7029 9.21895 36.5029 8.91895 37.2029C8.61895 37.9029 7.91895 38.5029 7.21894 38.8029C6.41895 39.2029 5.61894 39.3029 4.71894 39.3029C4.31894 39.3029 3.81894 39.3029 3.31894 39.2029C2.81894 39.1029 2.41895 38.9029 1.91895 38.7029C1.31894 38.4029 0.818943 37.8029 0.518944 37.3029C0.218945 36.7029 0.0189438 36.1029 0.0189438 35.5029C-0.0810566 34.3029 0.218943 33.2029 0.818943 32.3029C1.31894 31.4029 2.01894 30.8029 2.61894 30.3029C3.31894 29.9029 3.91895 29.6029 4.41895 29.4029C4.91895 29.2029 5.51894 28.9029 6.31894 28.8029C7.11894 28.7029 8.11894 28.8029 9.01894 29.2029C9.91894 29.6029 10.7189 30.4029 11.5189 31.2029C12.2189 32.0029 12.9189 32.9029 13.7189 33.8029C14.8189 35.1029 16.0189 36.1029 17.3189 36.8029C18.6189 37.5029 19.8189 37.9029 20.9189 38.0029C21.0189 38.0029 21.2189 38.0029 21.3189 38.1029C21.4189 38.1029 21.6189 38.1029 21.7189 38.1029C22.0189 38.1029 22.2189 38.2029 22.4189 38.2029C22.8189 38.2029 23.2189 38.3029 23.6189 38.2029C24.2189 38.2029 24.6189 38.2029 24.6189 38.2029C24.6189 38.2029 24.2189 38.3029 23.6189 38.4029C23.3189 38.5029 22.9189 38.5029 22.4189 38.5029C22.2189 38.5029 21.9189 38.5029 21.7189 38.5029C21.6189 38.5029 21.4189 38.5029 21.3189 38.5029C21.2189 38.5029 21.0189 38.5029 20.9189 38.5029C19.7189 38.4029 18.3189 38.2029 16.9189 37.5029C16.2189 37.2029 15.5189 36.7029 14.8189 36.2029C14.1189 35.7029 13.5189 35.0029 12.9189 34.4029C12.1189 33.5029 11.4189 32.6029 10.8189 31.7029C10.5189 31.3029 10.1189 30.9029 9.81894 30.6029C9.51894 30.3029 9.11894 30.0029 8.71894 29.8029C8.01894 29.4029 7.11895 29.2029 6.41895 29.2029C5.71894 29.2029 5.01894 29.4029 4.51894 29.5029C4.01894 29.7029 3.51895 30.1029 2.91895 30.5029C2.31894 31.0029 1.81894 31.6029 1.41895 32.4029C1.01895 33.2029 0.818945 34.2029 0.918945 35.1029C1.01895 36.1029 1.51895 37.0029 2.41895 37.5029C2.71894 37.7029 3.11895 37.8029 3.41895 37.9029C3.81894 38.0029 4.11894 38.0029 4.51894 38.0029C5.31894 38.0029 6.01894 37.9029 6.61894 37.7029C7.21894 37.5029 7.81894 37.1029 8.01894 36.6029C8.31894 36.1029 8.41895 35.5029 8.21894 35.0029C8.11894 34.8029 8.01895 34.5029 7.91895 34.4029C7.81894 34.2029 7.61895 34.1029 7.41895 34.0029C7.01895 33.8029 6.71894 33.7029 6.41895 33.7029C6.11895 33.7029 5.81894 33.7029 5.71894 33.8029C5.91895 33.9029 5.81894 33.9029 5.81894 33.9029Z" fill="#ccabff"/>
<path d="M5.11893 34.6029C5.11893 35.3029 5.71894 35.8029 6.31894 35.8029C7.01894 35.8029 7.51894 35.2029 7.51894 34.6029C7.51894 33.9029 6.91894 33.4029 6.31894 33.4029C5.61894 33.4029 5.11893 33.9029 5.11893 34.6029Z" fill="#ccabff"/>
</svg>
