<svg width="40" height="40" viewBox="0 0 40 40" fill="none" xmlns="http://www.w3.org/2000/svg">
<path d="M1.9 12.6029C3.1 14.4029 5.5 15.7029 7.7 16.1029C10 16.5029 12.3 15.8029 14.3 14.8029C16.7 13.7029 18.8 12.2029 21.1 10.9029C23.2 9.7029 25.6 8.5029 28.2 8.5029C28.5 8.5029 28.8 8.4029 28.8 8.2029C28.9 8.0029 28.8 7.7029 28.6 7.6029C26.9 6.30291 24.3 6.30291 22.2 6.80291C20 7.4029 18.8 9.2029 17.7 10.9029C17.6 9.9029 17.4 8.9029 16.5 8.2029C16.1 7.9029 14.9 7.3029 15.7 8.7029C16.6 10.1029 15.3 11.9029 14.1 13.1029C12.8 14.5029 10.6 15.1029 8.7 15.3029C8.6 15.3029 8.6 15.3029 8.6 15.3029C8.4 15.3029 8.20001 15.3029 8.00001 15.2029C4.30001 14.7029 2 11.8029 1.6 8.7029C1.3 6.2029 1.8 2.8029 4.4 1.4029C5.60001 0.802905 7 0.902905 8.2 1.3029C8.4 1.4029 8.5 1.4029 8.7 1.5029C8.7 1.7029 8.70001 1.8029 8.90001 2.0029C9.40001 2.5029 9.60001 3.50291 9.3 4.30291C8.3 3.9029 6.9 4.1029 5.9 4.5029C4.5 5.1029 3.6 6.5029 4.2 7.6029C4.2 7.7029 4.3 7.80291 4.3 7.80291C4.3 7.9029 4.4 8.10291 4.6 8.10291C7.4 9.60291 10.3 7.9029 11.1 5.2029C12 2.2029 9.3 0.102905 6.2 0.00290484C3.2 -0.0970952 1.5 2.4029 0.800005 4.7029C0.100005 7.3029 0.400005 10.3029 1.9 12.6029Z" fill="#ccabff"/>
<path d="M19.2 19.9029C19.2 19.9029 19.2 19.9029 19.3 20.0029C19.4 20.1029 19.5 20.1029 19.6 20.3029C19.9 20.5029 20.2 21.0029 20.5 21.6029C20.6 21.9029 20.8 22.3029 20.9 22.7029C21 23.1029 21 23.6029 21 24.0029C20.9 24.5029 20.8 25.0029 20.6 25.4029C20.4 25.9029 20 26.3029 19.6 26.7029C18.7 27.5029 17.5 28.1029 16.2 28.1029C15.5 28.1029 14.8 28.0029 14.2 27.7029C13.9 27.6029 13.6 27.4029 13.3 27.2029C13.2 27.1029 13 27.0029 12.9 26.9029C12.8 26.8029 12.6 26.6029 12.5 26.5029C11.4 25.4029 10.7 23.9029 10.7 22.3029C10.7 21.5029 10.8 20.7029 11.1 19.9029C11.2 19.7029 11.3 19.5029 11.4 19.3029C11.5 19.1029 11.6 18.9029 11.7 18.7029C11.9 18.3029 12.2 18.0029 12.5 17.7029C13.3 16.8029 14.3 16.1029 15.3 15.7029C16.4 15.3029 17.5 15.0029 18.6 15.1029C19.7 15.1029 20.8 15.4029 21.7 15.8029C21.9 15.9029 22.2 16.0029 22.4 16.1029C22.6 16.2029 22.8 16.4029 23.1 16.5029C23.5 16.8029 23.9 17.1029 24.3 17.4029C25.7 18.7029 26.7 20.4029 27.2 21.9029C27.7 23.4029 27.8 24.9029 27.7 26.1029C27.5 27.2029 27.1 28.6029 26.2 30.0029C25.3 31.4029 24.1 32.8029 22.4 33.9029C20.7 35.0029 18.7 35.8029 16.4 36.0029C14.1 36.2029 11.7 35.9029 9.5 34.8029C9.3 34.7029 9.1 34.6029 8.9 34.5029C8.7 34.4029 8.5 34.3029 8.3 34.2029C8.1 34.1029 7.9 34.0029 7.7 33.8029L7.4 33.6029L7.1 33.4029C6.4 32.9029 5.7 32.3029 5.1 31.7029C3.9 30.5029 3 29.1029 2.4 27.6029C1.8 26.1029 1.5 24.6029 1.3 23.2029C1.1 21.8029 1 20.4029 0.9 19.2029C0.8 16.7029 0.699999 14.7029 0.699999 13.3029C0.699999 11.9029 0.599998 11.1029 0.599998 11.1029C0.599998 11.1029 0.399999 11.6029 0.299999 13.0029C0.199999 14.4029 0.1 16.4029 0 18.9029C0 20.2029 -1.52737e-06 21.5029 0.0999985 23.0029C0.199998 24.5029 0.499998 26.1029 1.1 27.7029C1.7 29.3029 2.6 30.9029 3.9 32.3029C4.5 33.0029 5.3 33.6029 6.1 34.2029L6.4 34.4029L6.7 34.6029C6.9 34.7029 7.1 34.9029 7.3 35.0029C7.5 35.1029 7.7 35.3029 7.9 35.4029C8.1 35.5029 8.3 35.6029 8.6 35.7029C11.1 36.9029 13.8 37.3029 16.3 36.9029C18.8 36.6029 21 35.6029 22.7 34.3029C24.4 33.0029 25.7 31.4029 26.5 29.9029C27.3 28.4029 27.7 26.9029 27.7 25.7029C27.9 24.5029 27.9 23.0029 27.5 21.3029C27.1 19.6029 26.2 17.8029 24.7 16.2029C24.3 15.8029 23.9 15.4029 23.4 15.1029C23.2 14.9029 22.9 14.8029 22.7 14.6029C22.4 14.5029 22.2 14.3029 21.9 14.2029C20.8 13.7029 19.6 13.3029 18.3 13.3029C17 13.2029 15.7 13.5029 14.4 14.0029C13.1 14.5029 12 15.3029 11.1 16.4029C10.7 16.8029 10.5 17.2029 10.2 17.6029C10.1 17.8029 9.9 18.0029 9.8 18.3029C9.7 18.5029 9.6 18.8029 9.5 19.0029C9.1 20.0029 9 21.0029 9.1 22.0029C9.2 23.0029 9.4 23.9029 9.8 24.8029C10.2 25.7029 10.8 26.4029 11.4 27.0029C11.6 27.1029 11.7 27.3029 11.9 27.4029C12.1 27.5029 12.3 27.7029 12.4 27.8029C12.8 28.0029 13.2 28.2029 13.6 28.4029C14.4 28.7029 15.3 28.8029 16.1 28.8029C17.7 28.7029 19.1 28.0029 20 27.0029C20.1 26.9029 20.2 26.7029 20.3 26.6029C20.4 26.5029 20.5 26.3029 20.6 26.2029C20.7 26.1029 20.8 25.9029 20.8 25.8029C20.9 25.7029 20.9 25.5029 21 25.4029C21.2 24.8029 21.3 24.3029 21.4 23.8029C21.4 22.7029 21.1 21.9029 20.7 21.3029C20.3 20.7029 19.9 20.3029 19.6 20.1029C19.5 20.1029 19.4 20.0029 19.3 20.0029C19.2 19.9029 19.2 19.9029 19.2 19.9029Z" fill="#ccabff"/>
<path d="M33.5 33.9029C33.5 33.9029 33.4 33.9029 33.3 33.8029C33.1 33.7029 32.9 33.7029 32.6 33.6029C32.3 33.6029 31.8 33.6029 31.4 33.8029C31.2 33.9029 31 34.1029 30.8 34.3029C30.6 34.5029 30.4 34.8029 30.3 35.1029C30.1 35.7029 30.1 36.5029 30.4 37.2029C30.7 37.9029 31.4 38.5029 32.1 38.8029C32.9 39.2029 33.7 39.3029 34.6 39.3029C35 39.3029 35.5 39.3029 36 39.2029C36.5 39.1029 36.9 38.9029 37.4 38.7029C38 38.4029 38.5 37.8029 38.8 37.3029C39.1 36.7029 39.3 36.1029 39.3 35.5029C39.4 34.3029 39.1 33.2029 38.5 32.3029C38 31.4029 37.3 30.8029 36.7 30.3029C36 29.9029 35.4 29.6029 34.9 29.4029C34.4 29.2029 33.8 28.9029 33 28.8029C32.2 28.7029 31.2 28.8029 30.3 29.2029C29.4 29.6029 28.6 30.4029 27.8 31.2029C27.1 32.0029 26.4 32.9029 25.6 33.8029C24.5 35.1029 23.3 36.1029 22 36.8029C20.7 37.5029 19.5 37.9029 18.4 38.0029C18.3 38.0029 18.1 38.0029 18 38.1029C17.9 38.1029 17.7 38.1029 17.6 38.1029C17.3 38.1029 17.1 38.2029 16.9 38.2029C16.5 38.2029 16.1 38.3029 15.7 38.2029C15.1 38.2029 14.7 38.2029 14.7 38.2029C14.7 38.2029 15.1 38.3029 15.7 38.4029C16 38.5029 16.4 38.5029 16.9 38.5029C17.1 38.5029 17.4 38.5029 17.6 38.5029C17.7 38.5029 17.9 38.5029 18 38.5029C18.1 38.5029 18.3 38.5029 18.4 38.5029C19.6 38.4029 21 38.2029 22.4 37.5029C23.1 37.2029 23.8 36.7029 24.5 36.2029C25.2 35.7029 25.8 35.0029 26.4 34.4029C27.2 33.5029 27.9 32.6029 28.5 31.7029C28.8 31.3029 29.2 30.9029 29.5 30.6029C29.8 30.3029 30.2 30.0029 30.6 29.8029C31.3 29.4029 32.2 29.2029 32.9 29.2029C33.6 29.2029 34.3 29.4029 34.8 29.5029C35.3 29.7029 35.8 30.1029 36.4 30.5029C37 31.0029 37.5 31.6029 37.9 32.4029C38.3 33.2029 38.5 34.2029 38.4 35.1029C38.3 36.1029 37.8 37.0029 36.9 37.5029C36.6 37.7029 36.2 37.8029 35.9 37.9029C35.5 38.0029 35.2 38.0029 34.8 38.0029C34 38.0029 33.3 37.9029 32.7 37.7029C32.1 37.5029 31.5 37.1029 31.3 36.6029C31 36.1029 30.9 35.5029 31.1 35.0029C31.2 34.8029 31.3 34.5029 31.4 34.4029C31.5 34.2029 31.7 34.1029 31.9 34.0029C32.3 33.8029 32.6 33.7029 32.9 33.7029C33.2 33.7029 33.5 33.7029 33.6 33.8029C33.4 33.9029 33.5 33.9029 33.5 33.9029Z" fill="#ccabff"/>
<path d="M34.2 34.6029C34.2 35.3029 33.6 35.8029 33 35.8029C32.3 35.8029 31.8 35.2029 31.8 34.6029C31.8 33.9029 32.4 33.4029 33 33.4029C33.7 33.4029 34.2 33.9029 34.2 34.6029Z" fill="#ccabff"/>
</svg>
